<?xml version="1.0" encoding="UTF-8" standalone="no"?>
<!DOCTYPE svg PUBLIC "-//W3C//DTD SVG 1.1//EN" "http://www.w3.org/Graphics/SVG/1.1/DTD/svg11.dtd">
<svg version="1.1" xmlns="http://www.w3.org/2000/svg" xmlns:xlink="http://www.w3.org/1999/xlink" preserveAspectRatio="xMidYMid meet" viewBox="645.3346602638211 369.32385079699276 322.3692235133102 73.49871780584067" width="318.37" height="69.5"><defs><path d="M683.22 438.76C692.3 438.06 699.85 437.37 699.98 437.24C705.12 431.93 721.54 415.08 724.2 412.34C726.88 409.61 728.08 408.54 728.54 408.45C729.04 408.34 729.24 408.4 729.34 408.69C729.5 409.17 730.08 409.4 730.57 409.13C730.8 409.01 731.21 409 731.46 409.11C731.71 409.22 732.11 409.23 732.33 409.11C732.54 408.99 733.04 408.99 733.42 409.1C734.08 409.31 734.14 409.28 734.51 408.44C734.54 408.38 734.67 408.09 734.9 407.56C740.7 407.52 743.93 407.51 744.57 407.5C773.2 407.33 792.05 407.32 796.57 407.52C801.15 407.72 812.35 408.63 812.87 408.87C812.98 408.91 813.09 409.29 813.08 409.69C813.09 410.75 813.63 411.07 814.26 410.37C814.69 409.86 815.12 409.8 817.56 409.84C819.09 409.89 823.64 409.97 827.67 410.04C834.04 410.15 855.53 410.74 864.43 411.08C882.56 411.74 881.66 411.74 886.14 411.3C890.94 410.81 906.01 408.98 907.32 408.72C907.94 408.58 912.18 407.55 916.77 406.39C921.36 405.24 925.51 404.25 926.02 404.17C926.53 404.1 934.95 403.98 944.78 403.91C965.76 403.74 963.95 403.81 964.36 403.34C964.85 402.74 964.81 401.45 964.29 401.03C963.82 400.63 962.74 400.64 938.21 400.89C937.42 400.9 933.43 400.94 926.25 401.02C920.32 399.7 917.03 398.96 916.37 398.82C905.98 396.52 906.76 396.62 890.94 394.97C883.37 394.19 883.28 394.21 861.05 395.41C853.96 395.81 836.08 396.57 825.78 396.92C816.87 397.23 815.45 397.2 814.85 396.8C814.11 396.31 814.11 396.31 813.54 397.5C813.3 397.99 812.54 398.12 806.59 398.7C795.51 399.79 792.07 399.87 743.44 400.39C742.9 400.39 740.17 400.42 735.26 400.47C735.16 400.02 735.1 399.77 735.09 399.72C734.89 398.87 734.42 398.56 733.82 398.89C733.6 399.01 733.13 398.99 732.79 398.85C732.46 398.7 732.08 398.7 731.93 398.87C731.75 399.04 731.38 399.04 731.04 398.89C730.58 398.69 730.31 398.73 729.98 399.1C729.7 399.38 729.07 399.62 728.42 399.66C728.35 399.67 727.98 399.69 727.32 399.72C722.79 394.65 720.27 391.83 719.76 391.27C715.6 386.59 710.89 381.29 709.28 379.49C707.67 377.68 705.56 375.31 704.57 374.25C704.45 374.12 703.86 373.47 702.79 372.3C693.24 371.69 687.94 371.36 686.87 371.29C678.13 370.72 670.3 370.29 669.53 370.33C667.77 370.39 664.39 371.46 663.28 372.27C662.84 372.59 661.85 373.76 661.09 374.86C659.54 377.08 658.98 378.3 654.96 388.46C653.68 391.69 651.82 396.33 650.86 398.73C650.75 399.02 650.15 400.48 649.09 403.1C648.3 403.14 647.87 403.17 647.78 403.17C647.03 403.22 646.42 403.31 646.39 403.37C646.27 403.65 646.37 405.81 646.52 406.14C646.65 406.42 646.93 406.52 647.64 406.5C647.71 406.5 648.03 406.5 648.6 406.49C649.17 408.35 649.48 409.38 649.54 409.59C650.07 411.29 651.86 417.2 653.55 422.75C656.16 431.35 656.8 433.13 657.84 434.88C658.51 436.02 659.35 437.31 659.68 437.75C660.28 438.51 661.59 439.22 662.73 439.42C666.19 440.05 667.23 440.02 683.22 438.76Z" id="b1DglMeST"></path></defs><g><g><use xlink:href="#b1DglMeST" opacity="1" fill="#3f51b5" fill-opacity="1"></use><g><use xlink:href="#b1DglMeST" opacity="1" fill-opacity="0" stroke="#000000" stroke-width="1" stroke-opacity="0"></use></g></g></g></svg>