<?xml version="1.0" encoding="UTF-8" standalone="no"?>
<!DOCTYPE svg PUBLIC "-//W3C//DTD SVG 1.1//EN" "http://www.w3.org/Graphics/SVG/1.1/DTD/svg11.dtd">
<svg version="1.1" xmlns="http://www.w3.org/2000/svg" xmlns:xlink="http://www.w3.org/1999/xlink" preserveAspectRatio="xMidYMid meet" viewBox="205.8038223559567 477.8625076720979 641.0631652312911 151.0597458127711" width="637.06" height="147.06"><defs><path d="M254.09 478.87L254.43 478.88L254.82 478.89L255.25 478.91L255.74 478.93L256.26 478.95L256.83 478.98L257.43 479.01L258.08 479.04L258.77 479.08L259.5 479.11L260.26 479.16L261.06 479.2L261.89 479.25L262.75 479.29L263.65 479.35L264.58 479.4L265.54 479.46L266.53 479.51L267.54 479.58L268.59 479.64L269.65 479.7L270.75 479.77L271.86 479.84L273 479.91L274.15 479.99L275.33 480.06L276.52 480.14L277.74 480.22L278.96 480.3L280.21 480.38L281.46 480.46L282.73 480.55L284.01 480.63L285.3 480.72L286.6 480.81L287.91 480.9L288.09 480.91L288.3 480.93L288.54 480.94L288.81 480.96L289.11 480.98L289.45 481L289.81 481.03L290.21 481.05L290.64 481.08L291.11 481.11L291.6 481.15L292.13 481.18L292.68 481.22L293.27 481.26L293.89 481.3L294.55 481.34L295.23 481.39L295.95 481.44L296.7 481.49L297.48 481.54L298.29 481.59L299.13 481.65L300.01 481.71L300.92 481.77L301.86 481.83L302.83 481.9L303.83 481.96L304.86 482.03L305.93 482.11L307.03 482.18L308.16 482.25L309.32 482.33L310.52 482.41L311.74 482.5L313 482.58L314.29 482.67L315.61 482.76L316.97 482.85L318.35 482.94L319.77 483.04L319.93 483.22L320.08 483.4L320.23 483.58L320.38 483.75L320.53 483.91L320.67 484.08L320.8 484.24L320.94 484.39L321.07 484.54L321.19 484.69L321.32 484.83L321.44 484.97L321.55 485.1L321.66 485.23L321.77 485.36L321.88 485.48L321.98 485.6L322.08 485.71L322.17 485.82L322.26 485.93L322.43 486.12L322.73 486.47L322.86 486.62L322.92 486.69L322.97 486.75L323.02 486.81L323.07 486.87L323.12 486.92L323.16 486.96L323.2 487.01L323.23 487.05L323.26 487.08L323.29 487.11L323.31 487.14L323.33 487.16L323.48 487.34L323.64 487.52L323.81 487.71L323.99 487.92L324.17 488.13L324.36 488.35L324.56 488.57L324.76 488.81L324.97 489.05L325.19 489.3L325.41 489.56L325.63 489.82L325.86 490.09L326.09 490.37L326.33 490.65L326.58 490.93L326.82 491.22L327.07 491.51L327.32 491.81L327.58 492.11L327.83 492.42L328.09 492.72L328.35 493.03L328.62 493.34L328.88 493.65L329.14 493.96L329.41 494.28L329.67 494.59L329.94 494.9L330.2 495.22L330.47 495.53L330.73 495.84L330.99 496.15L331.25 496.46L331.51 496.77L331.76 497.07L332.01 497.37L332.26 497.67L332.51 497.96L332.75 498.25L333.01 498.55L333.28 498.88L333.58 499.23L333.9 499.61L334.24 500.01L334.6 500.44L334.98 500.88L335.37 501.36L335.79 501.85L336.22 502.36L336.67 502.89L337.13 503.44L337.61 504.01L338.1 504.6L338.61 505.2L339.13 505.82L339.66 506.45L340.21 507.1L340.76 507.76L341.33 508.43L341.9 509.11L342.48 509.81L343.08 510.51L343.68 511.22L344.28 511.94L344.89 512.67L345.51 513.41L346.13 514.15L346.76 514.89L347.39 515.64L348.02 516.39L348.66 517.15L349.29 517.91L349.93 518.66L350.57 519.42L351.84 520.93L352.47 521.68L353.1 522.43L353.73 523.18L353.81 523.28L353.91 523.39L354.02 523.53L354.15 523.68L354.3 523.85L354.46 524.04L354.63 524.24L354.82 524.46L355.03 524.71L355.25 524.96L355.48 525.24L355.73 525.54L356 525.85L356.28 526.18L356.57 526.53L356.88 526.9L357.21 527.28L357.55 527.68L357.9 528.1L358.27 528.54L358.66 529L359.06 529.47L359.48 529.96L359.91 530.47L360.35 531L360.81 531.55L361.29 532.11L361.78 532.69L362.29 533.29L362.81 533.91L363.35 534.54L363.9 535.19L364.46 535.87L365.05 536.55L365.64 537.26L366.25 537.98L366.88 538.73L367.52 539.49L368.18 540.26L368.85 541.06L368.95 541.06L369.05 541.05L369.14 541.05L369.23 541.04L369.32 541.04L369.41 541.03L369.49 541.03L369.58 541.02L369.66 541.02L369.73 541.02L369.81 541.01L369.88 541.01L369.96 541.01L370.03 541L370.09 541L370.16 540.99L370.22 540.99L370.28 540.99L370.34 540.98L370.4 540.98L370.45 540.98L370.5 540.97L370.55 540.97L370.6 540.97L370.64 540.97L370.69 540.96L370.73 540.96L370.77 540.96L370.8 540.96L370.84 540.95L370.87 540.95L370.9 540.95L370.93 540.95L370.95 540.94L370.97 540.94L370.99 540.94L371.01 540.94L371.03 540.94L371.04 540.94L371.05 540.93L371.15 540.93L371.25 540.92L371.35 540.91L371.44 540.9L371.54 540.88L371.63 540.87L371.73 540.85L371.82 540.83L371.92 540.82L372.01 540.8L372.1 540.77L372.2 540.75L372.29 540.73L372.38 540.7L372.47 540.68L372.55 540.65L372.64 540.62L372.73 540.59L372.81 540.56L372.89 540.53L372.97 540.5L373.05 540.47L373.13 540.43L373.21 540.4L373.29 540.36L373.36 540.32L373.43 540.29L373.5 540.25L373.57 540.21L373.63 540.17L373.7 540.13L373.76 540.09L373.82 540.05L373.88 540.01L373.93 539.97L373.99 539.92L374.04 539.88L374.09 539.84L374.13 539.79L374.18 539.75L374.23 539.69L374.27 539.64L374.32 539.58L374.37 539.53L374.42 539.49L374.47 539.44L374.51 539.4L374.56 539.36L374.61 539.32L374.66 539.29L374.7 539.26L374.75 539.23L374.8 539.2L374.85 539.17L374.89 539.15L374.94 539.13L374.99 539.11L375.04 539.1L375.09 539.08L375.14 539.07L375.19 539.07L375.24 539.06L375.29 539.05L375.34 539.05L375.4 539.05L375.45 539.05L375.5 539.06L375.56 539.07L375.61 539.07L375.67 539.08L375.73 539.1L375.79 539.11L375.85 539.13L375.91 539.15L375.97 539.17L376.03 539.19L376.1 539.22L376.16 539.24L376.23 539.27L376.3 539.3L376.35 539.33L376.4 539.35L376.45 539.37L376.5 539.39L376.55 539.41L376.61 539.43L376.66 539.44L376.71 539.46L376.76 539.47L376.81 539.48L376.86 539.49L376.91 539.5L376.96 539.51L377.01 539.52L377.06 539.52L377.11 539.53L377.16 539.53L377.21 539.54L377.26 539.54L377.31 539.54L377.35 539.54L377.4 539.53L377.45 539.53L377.49 539.52L377.54 539.52L377.58 539.51L377.62 539.5L377.66 539.49L377.7 539.48L377.74 539.46L377.78 539.45L377.82 539.43L377.86 539.42L377.89 539.4L377.93 539.38L377.96 539.36L377.99 539.34L378.02 539.31L378.05 539.29L378.08 539.26L378.1 539.24L378.13 539.21L378.15 539.19L378.18 539.16L378.21 539.14L378.24 539.12L378.27 539.11L378.31 539.09L378.34 539.07L378.38 539.06L378.42 539.05L378.46 539.03L378.5 539.02L378.54 539.01L378.58 539.01L378.62 539L378.67 538.99L378.71 538.99L378.76 538.99L378.8 538.99L378.85 538.99L378.9 538.99L378.95 538.99L378.99 538.99L379.04 539L379.09 539L379.14 539.01L379.19 539.02L379.24 539.03L379.29 539.04L379.34 539.05L379.4 539.07L379.45 539.08L379.5 539.1L379.55 539.12L379.6 539.13L379.65 539.15L379.7 539.17L379.75 539.2L379.8 539.22L379.85 539.24L379.9 539.26L379.96 539.28L380.01 539.3L380.06 539.32L380.12 539.34L380.18 539.35L380.23 539.37L380.29 539.38L380.35 539.39L380.4 539.41L380.46 539.42L380.52 539.43L380.58 539.44L380.63 539.44L380.69 539.45L380.75 539.46L380.81 539.46L380.86 539.47L380.92 539.47L380.98 539.47L381.03 539.47L381.09 539.47L381.14 539.47L381.19 539.47L381.25 539.46L381.3 539.46L381.35 539.45L381.4 539.45L381.45 539.44L381.5 539.43L381.54 539.42L381.59 539.41L381.63 539.4L381.67 539.39L381.71 539.37L381.75 539.36L381.79 539.34L381.83 539.32L381.86 539.3L381.95 539.25L382.04 539.21L382.13 539.17L382.21 539.13L382.3 539.11L382.38 539.08L382.46 539.06L382.55 539.05L382.63 539.04L382.71 539.03L382.79 539.03L382.86 539.04L382.94 539.05L383.01 539.06L383.09 539.08L383.16 539.1L383.23 539.13L383.3 539.16L383.36 539.2L383.43 539.25L383.5 539.29L383.56 539.35L383.62 539.4L383.68 539.46L383.74 539.53L383.79 539.6L383.85 539.68L383.9 539.76L383.95 539.84L384 539.93L384.05 540.02L384.1 540.12L384.14 540.22L384.19 540.33L384.23 540.44L384.27 540.56L384.3 540.68L384.34 540.8L384.37 540.93L384.4 541.06L384.41 541.08L384.41 541.09L384.41 541.12L384.42 541.15L384.43 541.2L384.44 541.24L384.45 541.3L384.5 541.5L384.51 541.58L384.53 541.66L384.55 541.75L384.57 541.85L384.58 541.9L384.6 541.96L384.61 542.01L384.62 542.07L384.63 542.13L384.64 542.19L384.66 542.25L384.67 542.31L384.68 542.37L384.7 542.44L384.71 542.51L384.73 542.58L384.74 542.65L385.47 542.64L386.18 542.63L386.88 542.62L387.56 542.62L388.22 542.61L388.87 542.6L389.5 542.6L390.11 542.59L390.71 542.58L391.86 542.57L392.41 542.56L392.94 542.56L393.45 542.55L393.95 542.55L394.44 542.54L394.9 542.54L395.35 542.53L395.79 542.53L396.2 542.52L396.61 542.52L396.99 542.51L397.36 542.51L397.71 542.51L398.05 542.5L398.37 542.5L398.67 542.5L398.95 542.49L399.22 542.49L399.48 542.49L399.72 542.49L399.94 542.49L400.14 542.48L400.33 542.48L400.5 542.48L400.65 542.48L400.79 542.48L400.92 542.48L401.02 542.48L401.11 542.48L408.24 542.4L415.04 542.32L421.52 542.25L427.7 542.17L433.57 542.1L439.15 542.04L444.46 541.97L449.49 541.91L454.26 541.84L458.79 541.78L463.07 541.72L467.13 541.66L470.96 541.6L474.59 541.53L478.01 541.47L481.24 541.41L484.3 541.34L487.18 541.28L489.9 541.21L492.47 541.14L494.9 541.07L497.2 541L499.38 540.92L501.44 540.84L503.41 540.76L505.28 540.67L507.07 540.58L508.79 540.48L510.45 540.38L512.06 540.28L513.63 540.17L515.16 540.05L516.67 539.93L518.17 539.81L519.67 539.67L521.18 539.53L522.7 539.39L524.25 539.23L525.84 539.07L527.47 538.9L528.35 538.81L529.18 538.72L529.98 538.64L530.74 538.56L531.47 538.48L532.16 538.41L532.82 538.34L533.45 538.27L534.04 538.2L534.6 538.13L535.14 538.07L535.64 538.01L536.11 537.95L536.56 537.89L536.98 537.83L537.38 537.78L537.74 537.72L538.09 537.67L538.41 537.61L538.71 537.56L538.99 537.51L539.25 537.46L539.49 537.4L539.71 537.35L539.91 537.3L540.09 537.24L540.26 537.19L540.42 537.14L540.56 537.08L540.68 537.02L540.79 536.97L540.89 536.91L540.98 536.85L541.06 536.78L541.13 536.72L541.2 536.65L541.25 536.58L541.3 536.51L541.34 536.44L541.38 536.36L541.47 536.18L541.54 536L541.62 535.84L541.69 535.68L541.76 535.53L541.83 535.39L541.89 535.26L541.95 535.14L542.01 535.03L542.06 534.92L542.12 534.83L542.17 534.74L542.22 534.65L542.27 534.58L542.32 534.51L542.37 534.45L542.42 534.4L542.47 534.36L542.52 534.32L542.57 534.29L542.61 534.26L542.66 534.25L542.72 534.23L542.77 534.23L542.82 534.23L542.88 534.24L542.94 534.25L543 534.27L543.06 534.29L543.13 534.32L543.2 534.36L543.27 534.4L543.35 534.44L543.43 534.49L543.51 534.54L543.6 534.6L543.69 534.67L543.79 534.73L543.89 534.81L544 534.88L544.1 534.94L544.2 535L544.31 535.06L544.43 535.11L544.56 535.16L544.7 535.21L544.86 535.25L545.03 535.3L545.21 535.33L545.42 535.37L545.64 535.4L545.89 535.43L546.15 535.46L546.44 535.49L546.75 535.51L547.09 535.53L547.45 535.54L547.84 535.55L548.26 535.56L548.7 535.57L549.18 535.58L549.69 535.58L550.24 535.58L550.82 535.57L551.44 535.57L552.09 535.56L552.78 535.54L553.51 535.53L554.29 535.51L555.1 535.49L555.96 535.47L556.87 535.44L557.82 535.41L558.82 535.38L559.87 535.35L560.96 535.31L562.11 535.27L563.31 535.23L564.57 535.18L565.87 535.14L567.45 535.08L569.08 535.02L570.75 534.95L572.48 534.89L574.24 534.82L576.05 534.75L577.89 534.68L579.77 534.6L581.67 534.52L583.6 534.44L585.55 534.36L587.53 534.28L589.51 534.19L591.51 534.11L593.52 534.02L595.54 533.93L597.55 533.85L599.56 533.76L601.57 533.67L603.57 533.58L605.56 533.49L607.53 533.4L609.48 533.31L611.41 533.22L613.32 533.13L615.2 533.04L617.04 532.95L618.85 532.86L620.61 532.78L622.34 532.69L624.01 532.61L625.64 532.53L627.22 532.45L628.73 532.37L630.19 532.29L631.58 532.22L632.91 532.14L634.17 532.07L635.35 532L636.45 531.94L639.7 531.75L642.8 531.58L645.74 531.41L648.53 531.25L651.17 531.1L653.68 530.96L656.05 530.83L658.3 530.71L660.42 530.6L662.43 530.49L664.33 530.39L666.12 530.31L667.82 530.23L669.42 530.16L670.93 530.09L672.36 530.04L673.71 529.99L674.99 529.96L676.2 529.93L677.36 529.9L678.46 529.89L679.5 529.88L680.51 529.88L681.48 529.89L682.41 529.91L683.32 529.93L684.2 529.96L685.07 530L685.93 530.05L686.78 530.1L687.63 530.16L688.49 530.23L689.37 530.3L690.26 530.38L691.17 530.47L692.11 530.57L693.08 530.67L694.09 530.77L695.15 530.89L696.26 531.01L698.57 531.26L700.77 531.51L702.85 531.74L704.82 531.95L706.68 532.16L708.45 532.36L710.13 532.55L711.71 532.73L713.22 532.9L714.64 533.07L716 533.23L717.28 533.39L718.51 533.54L719.68 533.69L720.79 533.84L721.86 533.98L722.89 534.13L723.88 534.27L724.84 534.42L725.78 534.57L726.69 534.72L727.6 534.87L728.49 535.03L729.37 535.19L730.26 535.36L731.15 535.54L732.05 535.72L732.97 535.91L733.91 536.11L734.88 536.32L735.88 536.54L736.91 536.77L737.99 537.02L739.11 537.28L740.29 537.55L741.53 537.84L742.82 538.14L744.19 538.46L745.63 538.8L747.15 539.16L747.26 539.18L747.39 539.21L747.53 539.24L747.7 539.28L747.89 539.33L748.1 539.37L748.32 539.43L748.57 539.49L748.84 539.55L749.13 539.62L749.43 539.69L749.76 539.76L750.1 539.85L750.47 539.93L750.85 540.02L751.26 540.12L751.68 540.22L752.13 540.32L752.59 540.43L753.08 540.55L753.58 540.67L754.11 540.79L755.21 541.05L755.8 541.19L756.4 541.33L757.02 541.48L757.66 541.63L758.33 541.79L759.01 541.95L759.71 542.11L760.43 542.28L761.17 542.46L761.93 542.64L762.72 542.82L763.52 543.01L764.34 543.2L765.18 543.4L766.04 543.6L766.92 543.81L767.98 543.8L769.02 543.79L770.04 543.77L771.04 543.76L772.01 543.75L772.95 543.74L773.87 543.73L774.77 543.72L775.65 543.71L776.5 543.7L777.32 543.69L778.12 543.68L778.9 543.67L779.66 543.66L780.39 543.66L781.09 543.65L781.78 543.64L782.43 543.63L783.07 543.63L783.68 543.62L784.27 543.61L784.83 543.61L785.37 543.6L786.37 543.59L786.84 543.58L787.28 543.58L787.7 543.57L788.09 543.57L788.46 543.56L788.81 543.56L789.13 543.56L789.43 543.55L789.71 543.55L789.96 543.55L790.18 543.54L790.39 543.54L790.56 543.54L790.72 543.54L790.85 543.54L794.44 543.5L797.87 543.46L801.12 543.43L804.21 543.39L807.15 543.36L809.93 543.33L812.55 543.31L815.04 543.28L817.38 543.26L819.58 543.24L821.65 543.22L823.59 543.21L825.41 543.19L827.1 543.18L828.68 543.17L830.15 543.17L831.52 543.16L832.77 543.16L833.93 543.16L835 543.17L835.97 543.18L836.86 543.18L837.67 543.2L838.4 543.21L839.05 543.23L839.64 543.25L840.16 543.27L840.63 543.3L841.03 543.32L841.39 543.35L841.7 543.39L841.96 543.43L842.19 543.47L842.38 543.51L842.54 543.56L842.67 543.6L842.79 543.66L842.88 543.71L842.96 543.77L843.04 543.83L843.11 543.9L843.19 543.98L843.25 544.06L843.32 544.15L843.38 544.25L843.44 544.35L843.49 544.45L843.55 544.56L843.59 544.67L843.64 544.79L843.68 544.91L843.71 545.04L843.74 545.17L843.77 545.3L843.8 545.43L843.82 545.57L843.84 545.71L843.85 545.85L843.86 545.99L843.86 546.13L843.87 546.28L843.87 546.42L843.86 546.56L843.85 546.71L843.84 546.85L843.82 546.99L843.8 547.13L843.78 547.27L843.75 547.41L843.71 547.55L843.68 547.68L843.64 547.81L843.59 547.94L843.55 548.06L843.5 548.18L843.44 548.3L843.38 548.41L843.32 548.52L843.25 548.62L843.18 548.72L843.12 548.79L843.08 548.86L843.05 548.93L843.01 548.99L842.98 549.04L842.94 549.1L842.89 549.15L842.82 549.19L842.73 549.24L842.61 549.28L842.47 549.32L842.29 549.35L842.07 549.38L841.8 549.42L841.49 549.44L841.12 549.47L840.7 549.5L840.21 549.52L839.65 549.54L839.02 549.56L838.32 549.58L837.53 549.6L836.65 549.62L835.69 549.63L834.63 549.65L833.46 549.67L832.2 549.68L830.82 549.7L829.33 549.71L827.71 549.73L825.98 549.74L824.11 549.76L822.12 549.78L819.98 549.79L817.7 549.81L815.27 549.83L812.69 549.85L809.96 549.88L807.06 549.9L804 549.93L802.53 549.94L801.07 549.95L799.62 549.96L798.19 549.97L796.78 549.99L795.38 550L794 550.01L792.64 550.03L791.3 550.04L789.98 550.05L788.68 550.07L787.41 550.08L786.16 550.1L784.94 550.11L783.74 550.13L782.58 550.14L781.44 550.16L780.34 550.17L779.27 550.19L778.23 550.2L777.23 550.22L776.27 550.23L775.34 550.25L774.45 550.26L773.6 550.28L772.79 550.29L772.02 550.31L771.3 550.32L770.62 550.34L769.99 550.35L769.4 550.36L768.87 550.38L768.38 550.39L767.94 550.4L767.56 550.42L767.23 550.43L766.95 550.44L766.73 550.45L766.56 550.47L766.46 550.48L766.37 550.49L766.25 550.52L766.11 550.55L765.94 550.58L765.75 550.63L765.53 550.68L765.29 550.73L765.02 550.8L764.74 550.87L764.43 550.94L764.1 551.02L763.75 551.11L763.37 551.2L762.98 551.29L762.57 551.4L762.15 551.5L761.7 551.61L761.24 551.73L760.76 551.85L760.26 551.98L759.75 552.11L759.23 552.24L758.69 552.38L758.14 552.52L757.57 552.66L756.99 552.81L756.4 552.96L755.8 553.12L755.19 553.28L754.57 553.44L753.94 553.6L753.3 553.77L752.65 553.94L752 554.11L751.34 554.28L750.67 554.46L750 554.63L749.32 554.81L748.64 554.99L747.95 555.17L747.26 555.36L746.58 555.54L745.9 555.72L745.22 555.9L744.55 556.08L743.88 556.26L743.23 556.43L742.57 556.6L741.93 556.77L741.29 556.94L740.67 557.1L740.05 557.27L739.44 557.43L738.84 557.58L738.26 557.74L737.68 557.89L737.12 558.03L736.57 558.18L736.04 558.31L735.51 558.45L735.01 558.58L734.52 558.71L734.04 558.83L733.59 558.95L733.14 559.06L732.72 559.17L732.32 559.27L731.93 559.37L731.57 559.47L731.22 559.56L730.9 559.64L730.6 559.71L730.32 559.79L730.06 559.85L729.83 559.91L729.62 559.96L729.44 560.01L729.28 560.05L729.14 560.08L729.04 560.11L728.79 560.15L728.44 560.21L728 560.28L727.47 560.36L726.86 560.46L726.16 560.56L725.39 560.67L724.55 560.78L723.63 560.91L722.66 561.04L721.63 561.18L720.54 561.33L719.41 561.48L718.23 561.64L717.01 561.8L715.75 561.97L714.47 562.13L713.15 562.31L711.82 562.48L710.47 562.65L709.1 562.83L707.73 563L706.35 563.18L704.97 563.35L703.6 563.53L702.23 563.7L700.88 563.87L699.55 564.03L698.24 564.19L696.96 564.35L695.71 564.5L694.5 564.65L693.33 564.79L692.2 564.93L691.13 565.06L690.11 565.17L689.14 565.29L688.25 565.39L687.41 565.48L686.66 565.56L686 565.63L685.39 565.7L684.8 565.76L684.24 565.82L683.7 565.87L683.18 565.92L682.68 565.97L682.18 566.01L681.68 566.05L681.19 566.08L680.69 566.11L680.18 566.14L679.65 566.16L679.11 566.18L678.54 566.2L677.94 566.21L677.31 566.21L676.64 566.21L675.93 566.21L675.18 566.21L674.37 566.19L673.51 566.18L672.58 566.16L671.6 566.13L670.54 566.11L669.41 566.07L668.2 566.03L666.9 565.99L665.52 565.94L664.05 565.89L662.48 565.84L660.8 565.77L659.02 565.71L657.13 565.64L655.13 565.56L653 565.48L650.75 565.39L648.38 565.3L645.86 565.2L643.21 565.1L641.83 565.04L640.36 564.99L638.81 564.93L637.17 564.87L635.46 564.81L633.69 564.75L631.85 564.68L629.95 564.62L628 564.55L626 564.48L623.96 564.42L621.88 564.35L619.77 564.28L617.63 564.22L615.47 564.15L613.3 564.08L611.11 564.01L608.92 563.95L606.73 563.88L604.54 563.82L602.36 563.75L600.19 563.69L598.05 563.63L595.93 563.57L593.84 563.51L591.78 563.45L589.77 563.39L587.8 563.34L585.88 563.29L584.02 563.24L582.22 563.19L580.49 563.15L578.83 563.11L577.25 563.07L575.75 563.03L574.33 563L573.01 562.97L571.79 562.94L570.67 562.92L569.66 562.9L569.05 562.89L568.44 562.88L567.83 562.87L567.21 562.85L566.6 562.84L565.98 562.83L565.37 562.82L564.75 562.81L564.14 562.8L563.52 562.78L562.91 562.77L562.31 562.76L561.71 562.75L561.11 562.74L560.52 562.73L559.93 562.72L559.35 562.7L558.78 562.69L558.22 562.68L557.67 562.67L557.12 562.66L556.58 562.65L556.06 562.64L555.55 562.63L555.05 562.62L554.56 562.61L554.08 562.6L553.62 562.59L553.18 562.58L552.74 562.57L552.33 562.56L551.93 562.55L551.55 562.54L551.19 562.53L550.84 562.52L550.52 562.51L550.21 562.5L549.93 562.49L549.67 562.48L549.43 562.48L549.07 562.47L548.72 562.46L548.39 562.46L548.08 562.46L547.78 562.46L547.49 562.45L547.21 562.45L546.95 562.46L546.7 562.46L546.46 562.46L546.23 562.47L546.01 562.48L545.8 562.49L545.61 562.5L545.42 562.51L545.24 562.52L545.07 562.54L544.91 562.56L544.76 562.58L544.62 562.6L544.48 562.62L544.35 562.65L544.23 562.68L544.11 562.71L544 562.75L543.9 562.78L543.8 562.82L543.71 562.86L543.62 562.91L543.53 562.95L543.45 563L543.37 563.06L543.3 563.11L543.22 563.17L543.15 563.24L543.08 563.3L543.02 563.37L542.95 563.44L542.89 563.52L542.82 563.6L542.73 563.7L542.64 563.8L542.54 563.89L542.45 563.98L542.36 564.05L542.27 564.12L542.18 564.18L542.09 564.23L542.01 564.28L541.92 564.31L541.84 564.34L541.76 564.36L541.68 564.38L541.6 564.38L541.53 564.38L541.45 564.38L541.38 564.36L541.31 564.34L541.24 564.31L541.18 564.27L541.11 564.23L541.05 564.18L540.99 564.12L540.94 564.06L540.88 563.99L540.83 563.91L540.79 563.83L540.74 563.74L540.7 563.64L540.66 563.54L540.63 563.43L540.59 563.31L540.56 563.19L540.54 563.06L540.52 562.92L540.5 562.78L540.48 562.64L540.47 562.48L540.46 562.32L540.46 562.16L540.46 562.09L540.46 562.03L540.46 561.97L540.46 561.91L540.46 561.84L540.46 561.78L540.45 561.72L540.45 561.66L540.44 561.6L540.44 561.54L540.43 561.48L540.42 561.43L540.41 561.37L540.4 561.31L540.4 561.26L540.39 561.21L540.38 561.15L540.36 561.1L540.35 561.05L540.34 561L540.33 560.96L540.32 560.91L540.3 560.87L540.29 560.83L540.28 560.79L540.26 560.75L540.25 560.71L540.23 560.67L540.22 560.64L540.2 560.61L540.19 560.58L540.17 560.55L540.16 560.53L540.14 560.51L540.12 560.49L540.11 560.47L540.09 560.45L540.07 560.44L540.06 560.43L540.04 560.42L539.92 560.38L539.73 560.34L539.46 560.29L539.12 560.23L538.72 560.17L538.25 560.11L537.72 560.04L537.13 559.97L536.49 559.9L535.79 559.82L535.05 559.74L534.27 559.66L533.44 559.58L532.58 559.49L531.68 559.41L530.75 559.32L529.79 559.23L528.81 559.14L527.8 559.05L526.78 558.96L525.74 558.87L524.69 558.78L523.63 558.7L522.57 558.61L521.5 558.52L520.43 558.44L519.37 558.35L518.31 558.27L517.27 558.2L516.24 558.12L515.23 558.05L514.24 557.98L513.27 557.91L512.33 557.85L511.41 557.79L510.54 557.74L509.7 557.69L508.89 557.64L508.14 557.6L507.42 557.57L506.69 557.54L505.85 557.51L504.91 557.48L503.86 557.45L502.71 557.43L501.45 557.41L500.09 557.38L498.63 557.36L497.07 557.35L495.41 557.33L493.65 557.32L491.79 557.3L489.83 557.29L487.78 557.28L485.63 557.27L483.39 557.26L481.05 557.26L478.62 557.26L476.1 557.25L473.49 557.25L470.79 557.25L467.99 557.25L465.11 557.26L462.14 557.26L459.09 557.27L455.94 557.27L452.71 557.28L449.4 557.29L446.01 557.31L442.53 557.32L438.97 557.33L435.32 557.35L431.6 557.37L427.8 557.39L423.92 557.4L419.96 557.43L415.93 557.45L411.82 557.47L407.63 557.5L403.37 557.52L403.27 557.53L403.14 557.53L403 557.53L402.83 557.53L402.65 557.53L402.45 557.53L402.22 557.54L401.98 557.54L401.72 557.54L401.44 557.54L401.14 557.54L400.82 557.54L400.48 557.55L400.12 557.55L399.75 557.55L399.35 557.55L398.93 557.56L398.5 557.56L398.04 557.56L397.57 557.56L397.07 557.57L396.56 557.57L396.03 557.57L395.48 557.58L394.91 557.58L394.32 557.58L393.71 557.59L393.08 557.59L392.43 557.59L391.76 557.6L391.07 557.6L390.37 557.61L389.64 557.61L388.9 557.62L388.13 557.62L387.35 557.63L386.55 557.63L385.72 557.64L384.88 557.64L384.02 557.65L383.99 557.73L383.95 557.82L383.92 557.89L383.89 557.97L383.86 558.05L383.83 558.12L383.8 558.19L383.77 558.26L383.74 558.33L383.71 558.4L383.69 558.46L383.66 558.52L383.64 558.58L383.61 558.64L383.59 558.7L383.56 558.75L383.54 558.81L383.52 558.86L383.5 558.91L383.48 558.95L383.46 559L383.44 559.04L383.43 559.09L383.41 559.13L383.39 559.16L383.38 559.2L383.36 559.23L383.35 559.27L383.34 559.3L383.32 559.33L383.31 559.35L383.3 559.38L383.29 559.4L383.28 559.42L383.27 559.44L383.26 559.46L383.26 559.48L383.25 559.49L383.25 559.5L383.24 559.51L383.19 559.64L383.13 559.77L383.08 559.88L383.04 560L382.99 560.1L382.94 560.2L382.9 560.3L382.86 560.38L382.81 560.47L382.77 560.54L382.73 560.62L382.69 560.68L382.65 560.74L382.61 560.8L382.57 560.85L382.53 560.9L382.49 560.94L382.45 560.98L382.41 561.01L382.37 561.04L382.32 561.07L382.28 561.09L382.23 561.11L382.18 561.12L382.13 561.13L382.08 561.14L382.03 561.14L381.97 561.14L381.91 561.14L381.85 561.13L381.79 561.12L381.72 561.11L381.65 561.09L381.58 561.07L381.5 561.05L381.42 561.03L381.34 561L381.25 560.97L381.16 560.94L381.06 560.91L381 560.89L380.94 560.88L380.88 560.86L380.83 560.85L380.76 560.83L380.7 560.82L380.64 560.81L380.58 560.8L380.52 560.79L380.46 560.78L380.39 560.77L380.33 560.76L380.27 560.76L380.21 560.75L380.15 560.75L380.08 560.74L380.02 560.74L379.96 560.74L379.9 560.74L379.84 560.74L379.78 560.74L379.72 560.74L379.67 560.74L379.61 560.75L379.55 560.75L379.5 560.76L379.44 560.76L379.39 560.77L379.34 560.78L379.29 560.79L379.24 560.8L379.19 560.81L379.15 560.82L379.1 560.83L379.06 560.85L379.02 560.86L378.98 560.88L378.95 560.89L378.91 560.91L378.88 560.93L378.84 560.95L378.81 560.97L378.77 560.98L378.74 561L378.7 561.01L378.66 561.03L378.62 561.04L378.58 561.05L378.53 561.06L378.49 561.07L378.45 561.08L378.4 561.09L378.36 561.09L378.31 561.1L378.27 561.1L378.22 561.11L378.17 561.11L378.13 561.11L378.08 561.11L378.03 561.11L377.98 561.11L377.94 561.11L377.89 561.11L377.84 561.1L377.79 561.1L377.74 561.09L377.7 561.09L377.65 561.08L377.6 561.07L377.56 561.06L377.51 561.05L377.47 561.04L377.42 561.03L377.38 561.02L377.34 561.01L377.3 560.99L377.25 560.98L377.21 560.96L377.18 560.95L377.14 560.93L377.1 560.91L377.06 560.9L377.02 560.88L376.98 560.87L376.94 560.86L376.89 560.84L376.85 560.83L376.8 560.82L376.76 560.81L376.71 560.8L376.67 560.8L376.62 560.79L376.57 560.78L376.52 560.78L376.48 560.77L376.43 560.77L376.38 560.77L376.33 560.77L376.28 560.77L376.23 560.77L376.18 560.77L376.13 560.77L376.09 560.78L376.04 560.78L375.99 560.79L375.94 560.79L375.9 560.8L375.85 560.81L375.8 560.82L375.76 560.83L375.71 560.84L375.67 560.85L375.63 560.86L375.59 560.87L375.54 560.89L375.5 560.9L375.47 560.92L375.43 560.94L375.39 560.95L375.36 560.97L375.28 561.01L375.21 561.05L375.13 561.08L375.06 561.11L374.98 561.14L374.91 561.16L374.83 561.18L374.75 561.19L374.68 561.2L374.6 561.21L374.53 561.22L374.45 561.22L374.38 561.21L374.3 561.21L374.23 561.2L374.16 561.18L374.09 561.17L374.02 561.15L373.95 561.13L373.88 561.1L373.81 561.07L373.75 561.04L373.68 561.01L373.62 560.97L373.56 560.93L373.5 560.89L373.44 560.85L373.38 560.8L373.33 560.75L373.28 560.7L373.23 560.64L373.18 560.58L373.14 560.52L373.09 560.46L373.05 560.4L373.02 560.33L372.98 560.26L372.95 560.19L372.92 560.12L372.9 560.04L372.88 560L372.86 559.95L372.85 559.91L372.83 559.87L372.81 559.83L372.79 559.8L372.77 559.76L372.75 559.73L372.73 559.7L372.7 559.67L372.68 559.64L372.65 559.62L372.62 559.59L372.59 559.57L372.56 559.55L372.53 559.53L372.5 559.51L372.47 559.5L372.43 559.48L372.4 559.47L372.36 559.46L372.32 559.45L372.28 559.44L372.23 559.44L372.19 559.43L372.14 559.43L372.09 559.43L372.04 559.43L371.99 559.43L371.94 559.43L371.88 559.43L371.83 559.44L371.77 559.45L371.71 559.45L371.64 559.46L371.58 559.48L371.51 559.49L371.44 559.5L371.37 559.52L371.29 559.53L371.22 559.55L371.15 559.58L371.06 559.61L370.97 559.65L370.88 559.71L370.78 559.76L370.67 559.83L370.55 559.91L370.43 559.99L370.3 560.09L370.17 560.19L370.03 560.3L369.88 560.43L369.72 560.56L369.56 560.7L369.38 560.85L369.2 561.01L369.02 561.18L368.82 561.36L368.62 561.55L368.41 561.76L368.19 561.97L367.96 562.19L367.72 562.43L367.47 562.67L367.22 562.93L366.95 563.2L366.68 563.48L366.39 563.77L366.1 564.07L365.8 564.38L365.48 564.71L365.16 565.05L364.83 565.4L364.49 565.76L364.13 566.14L363.77 566.52L363.39 566.93L363.01 567.34L362.61 567.77L362.16 568.26L361.61 568.85L360.97 569.55L360.24 570.35L359.42 571.23L358.53 572.21L357.55 573.26L356.51 574.39L355.41 575.6L354.24 576.86L353.01 578.19L351.74 579.58L350.42 581.02L349.05 582.5L347.65 584.02L346.21 585.58L344.75 587.17L343.26 588.79L341.76 590.42L340.24 592.07L338.71 593.73L337.18 595.4L335.64 597.06L334.12 598.73L332.6 600.38L331.09 602.01L329.61 603.63L328.14 605.22L326.71 606.78L325.31 608.3L323.95 609.78L322.62 611.22L321.35 612.61L320.13 613.94L318.96 615.2L317.86 616.41L316.82 617.54L315.85 618.6L314.96 619.57L314.15 620.46L314.1 620.48L314 620.51L313.84 620.54L313.63 620.57L313.37 620.61L313.07 620.66L312.71 620.7L312.3 620.75L311.85 620.81L311.35 620.87L310.81 620.93L310.22 620.99L309.59 621.06L308.92 621.13L308.21 621.2L307.46 621.28L306.67 621.36L305.85 621.44L304.99 621.53L304.09 621.61L303.16 621.7L302.2 621.79L301.21 621.89L300.19 621.98L299.14 622.08L298.06 622.18L296.95 622.28L295.82 622.38L294.66 622.48L293.48 622.58L292.27 622.69L291.05 622.8L289.8 622.9L288.54 623.01L287.26 623.12L285.96 623.23L284.64 623.34L283.31 623.45L281.96 623.56L280.61 623.67L278.26 623.87L276.03 624.05L273.9 624.23L271.87 624.4L269.94 624.55L268.11 624.7L266.37 624.84L264.72 624.97L263.16 625.09L261.68 625.2L260.28 625.31L258.95 625.4L257.7 625.49L256.52 625.57L255.4 625.64L254.35 625.7L253.35 625.76L252.42 625.8L251.54 625.84L250.71 625.87L249.92 625.9L249.18 625.91L248.48 625.92L247.82 625.92L247.19 625.92L246.59 625.9L246.02 625.89L245.47 625.86L244.94 625.83L244.43 625.79L243.94 625.74L243.46 625.69L242.98 625.64L242.51 625.57L242.04 625.5L241.57 625.43L241.1 625.35L240.61 625.26L240.12 625.17L239.61 625.07L239.44 625.04L239.26 625L239.09 624.96L238.91 624.91L238.74 624.86L238.56 624.81L238.39 624.75L238.21 624.69L238.04 624.63L237.86 624.57L237.68 624.5L237.51 624.42L237.34 624.35L237.16 624.27L236.99 624.19L236.82 624.11L236.65 624.02L236.48 623.93L236.31 623.84L236.15 623.75L235.99 623.65L235.83 623.55L235.67 623.45L235.51 623.35L235.36 623.25L235.21 623.14L235.06 623.04L234.92 622.93L234.78 622.82L234.64 622.71L234.51 622.59L234.38 622.48L234.26 622.37L234.13 622.25L234.02 622.13L233.9 622.01L233.8 621.9L233.69 621.78L233.6 621.66L233.5 621.54L233.45 621.46L233.4 621.38L233.34 621.3L233.28 621.2L233.21 621.11L233.14 621L233.07 620.89L233 620.78L232.92 620.66L232.84 620.53L232.76 620.4L232.67 620.27L232.58 620.13L232.49 619.99L232.4 619.84L232.31 619.69L232.21 619.54L232.12 619.38L232.02 619.22L231.92 619.06L231.82 618.89L231.71 618.72L231.61 618.55L231.51 618.37L231.4 618.2L231.3 618.02L231.19 617.84L231.08 617.66L230.98 617.48L230.87 617.3L230.76 617.12L230.66 616.93L230.55 616.75L230.44 616.56L230.34 616.38L230.23 616.19L230.13 616.01L230.03 615.83L229.92 615.64L229.82 615.46L229.67 615.18L229.52 614.91L229.37 614.62L229.22 614.34L229.07 614.04L228.92 613.74L228.78 613.44L228.63 613.12L228.48 612.79L228.34 612.45L228.19 612.09L228.04 611.72L227.88 611.34L227.73 610.94L227.57 610.51L227.41 610.07L227.24 609.6L227.07 609.12L226.89 608.6L226.71 608.06L226.52 607.5L226.33 606.9L226.12 606.28L225.92 605.63L225.7 604.94L225.48 604.22L225.24 603.46L225 602.66L224.75 601.83L224.49 600.96L224.22 600.05L223.94 599.1L223.64 598.1L223.34 597.06L223.02 595.97L222.69 594.84L222.35 593.65L221.99 592.42L221.62 591.13L221.24 589.79L220.98 588.91L220.73 588.03L220.47 587.14L220.22 586.26L219.97 585.37L219.71 584.49L219.46 583.61L219.21 582.73L218.96 581.86L218.71 580.99L218.46 580.13L218.21 579.28L217.73 577.6L217.49 576.77L217.26 575.95L217.03 575.15L216.8 574.36L216.57 573.58L216.36 572.82L216.14 572.07L215.93 571.33L215.72 570.62L215.52 569.92L215.33 569.24L215.14 568.58L214.95 567.94L214.78 567.33L214.6 566.73L214.44 566.16L214.28 565.62L214.13 565.1L213.99 564.6L213.85 564.13L213.72 563.69L213.6 563.28L213.49 562.9L213.39 562.55L213.3 562.23L213.21 561.95L213.2 561.91L213.19 561.87L213.18 561.82L213.16 561.76L213.14 561.7L213.13 561.63L213.1 561.55L213.08 561.47L213.06 561.38L213.03 561.29L213 561.19L212.97 561.08L212.94 560.96L212.9 560.84L212.87 560.71L212.83 560.58L212.79 560.44L212.75 560.29L212.7 560.14L212.66 559.98L212.61 559.81L212.56 559.63L212.51 559.45L212.45 559.27L212.4 559.07L212.34 558.87L212.28 558.67L212.22 558.46L212.16 558.24L212.09 558.01L212.02 557.78L211.95 557.54L211.88 557.29L211.81 557.04L211.74 556.78L211.66 556.51L211.58 556.24L211.5 555.96L211.42 555.68L211.33 555.39L211.25 555.39L211.17 555.39L211.08 555.39L211.01 555.39L210.93 555.39L210.85 555.39L210.78 555.4L210.71 555.4L210.64 555.4L210.57 555.4L210.51 555.4L210.44 555.4L210.38 555.4L210.32 555.4L210.26 555.4L210.2 555.4L210.15 555.4L210.1 555.4L210.05 555.4L210 555.4L209.95 555.41L209.9 555.41L209.86 555.41L209.82 555.41L209.74 555.41L209.71 555.41L209.67 555.41L209.61 555.41L209.58 555.41L209.53 555.41L209.47 555.41L209.41 555.41L209.31 555.41L209.2 555.41L209.11 555.41L209.01 555.41L208.92 555.41L208.83 555.41L208.74 555.41L208.66 555.4L208.58 555.4L208.5 555.39L208.42 555.38L208.35 555.37L208.28 555.36L208.21 555.35L208.15 555.34L208.08 555.33L208.02 555.31L207.97 555.3L207.91 555.28L207.86 555.26L207.8 555.25L207.75 555.23L207.71 555.2L207.66 555.18L207.62 555.16L207.58 555.13L207.54 555.11L207.5 555.08L207.46 555.05L207.43 555.02L207.4 554.99L207.37 554.96L207.34 554.92L207.31 554.89L207.28 554.85L207.26 554.81L207.23 554.77L207.21 554.73L207.19 554.69L207.17 554.65L207.15 554.59L207.13 554.51L207.1 554.43L207.08 554.33L207.06 554.22L207.04 554.1L207.02 553.97L207.01 553.82L206.99 553.68L206.97 553.52L206.95 553.35L206.94 553.18L206.92 553.01L206.91 552.83L206.89 552.64L206.88 552.45L206.87 552.26L206.86 552.07L206.85 551.87L206.84 551.68L206.83 551.48L206.82 551.29L206.82 551.09L206.81 550.9L206.81 550.72L206.81 550.53L206.8 550.35L206.8 550.18L206.8 550.01L206.81 549.85L206.81 549.7L206.82 549.55L206.82 549.42L206.83 549.29L206.84 549.18L206.85 549.07L206.86 548.98L206.88 548.9L206.89 548.84L206.91 548.78L206.92 548.77L206.93 548.76L206.94 548.75L206.96 548.74L206.99 548.73L207.01 548.72L207.04 548.71L207.08 548.7L207.12 548.69L207.16 548.68L207.2 548.67L207.25 548.66L207.31 548.65L207.36 548.63L207.42 548.62L207.48 548.61L207.55 548.6L207.62 548.59L207.69 548.58L207.76 548.56L207.84 548.55L207.92 548.54L208 548.53L208.08 548.52L208.17 548.51L208.26 548.5L208.35 548.49L208.44 548.48L208.54 548.46L208.63 548.45L208.73 548.44L208.83 548.43L208.93 548.42L209.04 548.41L209.14 548.4L209.25 548.4L209.36 548.39L209.47 548.38L209.58 548.37L209.69 548.36L209.71 548.36L209.72 548.36L209.74 548.36L209.77 548.36L209.79 548.36L209.82 548.36L209.85 548.36L209.88 548.35L209.92 548.35L209.95 548.35L210 548.35L210.04 548.34L210.08 548.34L210.13 548.34L210.18 548.34L210.24 548.33L210.29 548.33L210.35 548.33L210.54 548.31L210.68 548.31L210.76 548.3L210.84 548.3L210.92 548.29L211 548.29L211.08 548.28L211.17 548.28L211.26 548.27L211.35 548.27L211.45 548.26L211.55 548.26L211.65 548.25L211.75 548.24L211.86 548.24L211.97 548.23L212.08 548.23L212.2 548.22L212.31 548.21L212.47 547.8L212.62 547.4L212.77 547.01L212.92 546.62L213.07 546.25L213.21 545.88L213.34 545.53L213.47 545.18L213.6 544.84L213.73 544.52L213.85 544.2L213.97 543.89L214.09 543.59L214.2 543.29L214.31 543.01L214.41 542.74L214.51 542.48L214.71 541.98L214.8 541.74L214.88 541.51L214.97 541.3L215.05 541.09L215.12 540.89L215.2 540.7L215.27 540.52L215.33 540.35L215.39 540.19L215.45 540.03L215.51 539.89L215.56 539.76L215.61 539.63L215.65 539.51L215.69 539.41L215.73 539.31L215.76 539.22L215.79 539.15L215.81 539.08L215.84 539.02L215.85 538.97L216 538.58L216.16 538.17L216.32 537.75L216.48 537.31L216.65 536.85L216.83 536.39L217.01 535.91L217.2 535.41L217.39 534.91L217.59 534.39L217.79 533.86L217.99 533.32L218.2 532.78L218.41 532.22L218.62 531.66L218.83 531.09L219.05 530.51L219.27 529.93L219.49 529.35L219.72 528.76L219.94 528.16L220.17 527.57L220.39 526.97L220.62 526.37L220.84 525.77L221.07 525.18L221.3 524.58L221.52 523.98L221.74 523.39L221.97 522.8L222.19 522.21L222.41 521.63L222.62 521.05L222.84 520.48L223.05 519.92L223.26 519.37L223.46 518.82L223.67 518.28L223.86 517.75L224.06 517.23L224.65 515.66L225.21 514.15L225.76 512.71L226.27 511.33L226.77 510.02L227.24 508.76L227.69 507.57L228.13 506.44L228.54 505.35L228.93 504.33L229.31 503.35L229.67 502.42L230.01 501.54L230.34 500.71L230.66 499.92L230.96 499.17L231.25 498.46L231.52 497.78L231.79 497.15L232.05 496.54L232.29 495.97L232.53 495.43L232.76 494.91L232.98 494.42L233.2 493.96L233.41 493.51L233.62 493.09L233.83 492.68L234.03 492.29L234.23 491.91L234.43 491.54L234.63 491.19L234.83 490.84L235.03 490.5L235.24 490.16L235.45 489.82L235.66 489.48L235.87 489.15L236.1 488.8L236.33 488.45L236.44 488.28L236.56 488.1L236.67 487.93L236.79 487.75L236.91 487.58L237.04 487.4L237.16 487.23L237.28 487.05L237.4 486.88L237.53 486.71L237.65 486.54L237.78 486.37L237.9 486.2L238.02 486.04L238.15 485.88L238.27 485.71L238.39 485.56L238.52 485.4L238.64 485.25L238.76 485.09L238.88 484.95L238.99 484.8L239.11 484.66L239.22 484.52L239.34 484.39L239.45 484.26L239.55 484.14L239.66 484.02L239.76 483.9L239.87 483.79L239.96 483.68L240.06 483.58L240.15 483.48L240.24 483.39L240.33 483.31L240.41 483.23L240.49 483.15L240.57 483.09L240.64 483.03L240.71 482.97L240.88 482.84L241.07 482.71L241.28 482.58L241.5 482.45L241.74 482.31L241.99 482.17L242.25 482.04L242.52 481.9L242.81 481.76L243.1 481.63L243.41 481.49L243.72 481.35L244.05 481.22L244.38 481.09L244.71 480.95L245.06 480.82L245.4 480.7L245.76 480.57L246.11 480.45L246.47 480.33L246.84 480.21L247.2 480.09L247.56 479.98L247.93 479.87L248.29 479.77L248.66 479.67L249.02 479.58L249.38 479.49L249.73 479.4L250.09 479.32L250.43 479.25L250.77 479.18L251.11 479.12L251.44 479.06L251.76 479.01L252.07 478.97L252.37 478.93L252.66 478.9L252.94 478.88L253.21 478.87L253.36 478.86L253.55 478.86L253.79 478.87L254.09 478.87Z" id="b7BfPBmQ9"></path></defs><g><g><use xlink:href="#b7BfPBmQ9" opacity="1" fill="#3f51b5" fill-opacity="1"></use><g><use xlink:href="#b7BfPBmQ9" opacity="1" fill-opacity="0" stroke="#000000" stroke-width="1" stroke-opacity="0"></use></g></g></g></svg>